Coordinates
version=1
nRows=25
nColumns=28
inDegrees=yes

Units are S.I. units (second, meters, Newtons, ...)
Angles are in degrees.

endheader
time	pelvis_tilt	pelvis_list	pelvis_rotation	pelvis_tx	pelvis_ty	pelvis_tz	hip_flexion_r	hip_adduction_r	hip_rotation_r	knee_angle_r	ankle_angle_r	subtalar_angle_r	mtp_angle_r	hip_flexion_l	hip_adduction_l	hip_rotation_l	knee_angle_l	socket_flexion	socket_adduction	socket_rotation	socket_tx	socket_ty	socket_tz	foot_flex	lumbar_extension	lumbar_bending	lumbar_rotation
      0.00000000	      0.13210823	    -11.62253212	    -12.34207883	     -0.85970984	      0.98857972	      0.33650894	    -23.24978163	     11.22893121	     14.41879610	     -9.84329858	      1.40229935	    -16.17579673	     23.00310592	     26.65851049	    -16.08096258	      9.71186225	     -9.24621645	     -1.91268297	      0.00000000	      0.00000000	      0.00000000	     -0.00114807	      0.00000000	      2.47751149	    -13.86776878	      8.37659827	     20.26133578
      0.00416667	      0.06178564	    -11.67063048	    -12.27897639	     -0.85451150	      0.98783741	      0.33596289	    -23.35819428	     11.23550750	     14.45713595	    -10.02579844	      1.35331883	    -16.17064998	     23.00352464	     26.51791433	    -16.03621695	      9.70626974	     -9.26482112	     -1.93449212	      0.00000000	      0.00000000	      0.00000000	     -0.00141430	      0.00000000	      2.40225992	    -13.71768341	      8.44625882	     20.26159320
      0.00833333	     -0.04380021	    -11.83671513	    -12.35626866	     -0.84922773	      0.98704893	      0.33548195	    -23.35100380	     11.31897143	     14.40622789	    -10.43888070	      1.07469309	    -16.15872967	     22.99407485	     26.30641295	    -16.17804090	      9.67275507	     -9.14790479	     -1.93993100	      0.00000000	      0.00000000	      0.00000000	     -0.00212460	      0.00000000	      1.91062214	    -13.61376292	      8.66037629	     20.24932809
      0.01250000	     -0.17165274	    -11.99684828	    -12.41088897	     -0.84374432	      0.98623656	      0.33492883	    -23.31297806	     11.41040867	     14.42763616	    -10.87674205	      0.77419334	    -16.12381024	     23.01862566	     26.09464764	    -16.30729838	      9.66225149	     -8.96357123	     -1.86911944	      0.00000000	      0.00000000	      0.00000000	     -0.00272306	      0.00000000	      1.64655780	    -13.48690766	      8.87967415	     20.26584652
      0.01666667	     -0.25813738	    -12.05073762	    -12.34997303	     -0.83793390	      0.98543968	      0.33427993	    -23.41254111	     11.41569696	     14.48467825	    -11.10026214	      0.70047925	    -16.11038460	     23.02853691	     25.92422666	    -16.25847625	      9.66897699	     -8.95806863	     -1.87511290	      0.00000000	      0.00000000	      0.00000000	     -0.00314723	      0.00000000	      1.56868045	    -13.30829641	      8.96901374	     20.27379267
      0.02083333	     -0.57844185	    -12.27216558	    -12.59205503	     -0.83204820	      0.98445976	      0.33393169	    -23.14872877	     11.54906547	     14.59626533	    -11.66902185	      0.16601633	    -16.02799935	     23.33060712	     25.63366999	    -16.58390040	      9.60135940	     -8.19183400	     -1.41643487	      0.00000000	      0.00000000	      0.00000000	     -0.00414073	      0.00000000	      1.21279799	    -12.99407000	      9.28987406	     20.45720630
      0.02500000	     -0.65013502	    -12.30519160	    -12.53024305	     -0.82592822	      0.98364620	      0.33326365	    -23.25765599	     11.52312517	     14.66082631	    -11.91509441	      0.09634579	    -16.02071312	     23.34135644	     25.43371733	    -16.50868467	      9.63197780	     -8.21538777	     -1.44244923	      0.00000000	      0.00000000	      0.00000000	     -0.00472987	      0.00000000	      1.09874987	    -12.79816224	      9.35975447	     20.45752209
      0.02916667	     -0.90077518	    -12.39957595	    -12.79188264	     -0.81976450	      0.98283338	      0.33301496	    -23.00725302	     11.50111717	     14.62848585	    -12.53040928	     -0.56152823	    -15.98509465	     23.83311890	     25.03191403	    -16.71022832	      9.52052474	     -7.47197430	     -1.02960160	      0.00000000	      0.00000000	      0.00000000	     -0.00568821	      0.00000000	      0.70219906	    -12.49065649	      9.49274677	     20.57862401
      0.03333333	     -0.96371880	    -12.42357762	    -12.68069406	     -0.81347898	      0.98206884	      0.33220644	    -23.11319246	     11.47747600	     14.71993810	    -12.78734943	     -0.62677836	    -15.97257469	     23.84459419	     24.84395230	    -16.59411404	      9.53748625	     -7.51764281	     -1.03619764	      0.00000000	      0.00000000	      0.00000000	     -0.00630839	      0.00000000	      0.59237919	    -12.30728305	      9.57479956	     20.57999605
      0.03750000	     -1.06576334	    -12.46994404	    -12.76840626	     -0.80741175	      0.98142459	      0.33166205	    -22.95455095	     11.43866872	     14.61372688	    -13.45572463	     -1.21121149	    -15.92545583	     24.04536795	     24.52131409	    -16.61572680	      9.49987505	     -7.26221829	     -0.92451637	      0.00000000	      0.00000000	      0.00000000	     -0.00712530	      0.00000000	      0.08951944	    -12.18469961	      9.63871944	     20.53649366
      0.04166667	     -1.16333939	    -12.48187924	    -12.77784657	     -0.80109374	      0.98075915	      0.33101507	    -22.88886433	     11.37930159	     14.59182386	    -13.94639894	     -1.58254617	    -15.88213376	     24.19506552	     24.24755245	    -16.56074976	      9.50874769	     -7.12278477	     -0.85192075	      0.00000000	      0.00000000	      0.00000000	     -0.00792049	      0.00000000	     -0.21450908	    -11.99071978	      9.69133140	     20.51148481
      0.04583333	     -1.22256317	    -12.49574289	    -12.68174375	     -0.79459170	      0.98011792	      0.33020527	    -22.96770948	     11.33918441	     14.68902475	    -14.23762479	     -1.68329581	    -15.86093098	     24.21016732	     24.02539814	    -16.44416786	      9.56346318	     -7.17077781	     -0.84938765	      0.00000000	      0.00000000	      0.00000000	     -0.00871813	      0.00000000	     -0.28987986	    -11.78045494	      9.75466106	     20.50621207
      0.05000000	     -1.29970696	    -12.45804374	    -12.72807975	     -0.78859294	      0.97966336	      0.32960385	    -22.75136495	     11.24895475	     14.65718127	    -14.99128319	     -2.28146974	    -15.79154144	     24.26359904	     23.74756734	    -16.35961966	      9.63702645	     -7.05592540	     -0.78658787	      0.00000000	      0.00000000	      0.00000000	     -0.00938508	      0.00000000	     -0.76287932	    -11.67598677	      9.69282267	     20.42117030
      0.05416667	     -1.56856703	    -12.18536244	    -12.81606258	     -0.78159863	      0.97888143	      0.32914707	    -22.31912579	     10.88540658	     14.11440164	    -15.66116033	     -3.08590674	    -15.41508719	     26.12576363	     23.35776880	    -16.11489224	      9.41501150	     -6.16544024	     -0.18948583	      0.00000000	      0.00000000	      0.00000000	     -0.01024604	      0.00000000	     -0.92271988	    -11.10963473	      9.48567802	     20.33968558
      0.05833333	     -1.49004910	    -12.04766290	    -12.71734312	     -0.77523608	      0.97853734	      0.32825785	    -22.24519620	     10.62520105	     13.65562753	    -16.28844453	     -3.94138015	    -15.11010242	     28.58570478	     23.02133670	    -15.82131818	      9.37832563	     -6.27524040	     -0.21693929	      0.00000000	      0.00000000	      0.00000000	     -0.01099051	      0.00000000	     -1.15134136	    -11.06270288	      9.33620450	     20.20040228
      0.06250000	     -1.54707678	    -11.94636132	    -12.68821039	     -0.76891490	      0.97819626	      0.32750959	    -22.06481097	     10.47452670	     13.58731919	    -16.95114389	     -4.46985617	    -15.09330278	     28.56258811	     22.79103680	    -15.62481044	      9.34956800	     -6.31450167	     -0.17906708	      0.00000000	      0.00000000	      0.00000000	     -0.01168875	      0.00000000	     -1.36666274	    -10.88173424	      9.25533395	     20.11934378
      0.06666667	     -1.58580854	    -11.81250460	    -12.64041258	     -0.76255831	      0.97789896	      0.32678898	    -21.87144967	     10.30028973	     13.48382500	    -17.64892507	     -5.00472436	    -15.04667701	     28.56961369	     22.54637702	    -15.39319264	      9.32956297	     -6.35726261	     -0.13742225	      0.00000000	      0.00000000	      0.00000000	     -0.01238111	      0.00000000	     -1.58785937	    -10.70356554	      9.11792215	     20.01452294
      0.07083333	     -1.59992481	    -11.69272787	    -12.55342999	     -0.75632523	      0.97771258	      0.32602034	    -21.73327583	     10.16842323	     13.55286337	    -18.29601413	     -5.41254136	    -14.98612050	     28.57609084	     22.31280231	    -15.16017738	      9.42584569	     -6.43326379	     -0.08207093	      0.00000000	      0.00000000	      0.00000000	     -0.01297749	      0.00000000	     -1.75035245	    -10.56039309	      8.95936878	     19.93001553
      0.07500000	     -1.61079126	    -11.45512970	    -12.51867692	     -0.75003874	      0.97758619	      0.32529038	    -21.41406765	      9.87686656	     13.25214154	    -19.18115672	     -6.15543924	    -14.91249994	     28.59590452	     22.06139658	    -14.82573571	      9.27351771	     -6.50182631	     -0.01811407	      0.00000000	      0.00000000	      0.00000000	     -0.01355335	      0.00000000	     -1.95243965	    -10.40418944	      8.72089123	     19.76317036
      0.07916667	     -1.74099750	    -10.88323371	    -12.26752186	     -0.74318717	      0.97709720	      0.32423852	    -20.80899737	      9.23990651	     12.02378595	    -20.12279181	     -6.85163631	    -13.62489370	     31.13500647	     22.03725244	    -14.06029119	      9.18535789	     -6.61356780	      0.03862046	      0.00000000	      0.00000000	      0.00000000	     -0.01387650	      0.00000000	     -2.05211524	     -9.89535801	      8.17222380	     19.27508072
      0.08333333	     -1.69590079	    -10.70085447	    -12.20676723	     -0.73705619	      0.97715854	      0.32343529	    -20.54373619	      9.01794995	     11.89252189	    -21.01861322	     -7.52815234	    -13.67906125	     31.13112711	     21.77232398	    -13.76422206	      9.08727891	     -6.77321265	      0.07478484	      0.00000000	      0.00000000	      0.00000000	     -0.01443137	      0.00000000	     -2.19619861	     -9.83421735	      7.96182312	     19.17533088
      0.08750000	     -1.68077626	    -10.23567200	    -12.07461994	     -0.73059324	      0.97724515	      0.32269840	    -20.17813176	      8.52434305	     11.45975940	    -21.89963010	     -8.37326245	    -13.64365561	     31.32211006	     21.56380789	    -13.15848025	      8.89301962	     -6.93893207	      0.09881030	      0.00000000	      0.00000000	      0.00000000	     -0.01461894	      0.00000000	     -2.27038764	     -9.60940069	      7.42892468	     18.97875675
      0.09166667	     -1.71820023	     -9.83533038	    -11.82424167	     -0.72436679	      0.97707011	      0.32156202	    -19.63977392	      8.08586278	     10.67584945	    -22.94131352	     -9.21847009	    -13.03641956	     33.86545030	     21.57513622	    -12.55699120	      8.90800065	     -7.35679150	      0.02354747	      0.00000000	      0.00000000	      0.00000000	     -0.01490395	      0.00000000	     -2.37927643	     -9.34527799	      7.01065812	     18.61897357
      0.09583333	     -1.65591194	     -9.45340394	    -11.68552881	     -0.71813553	      0.97730505	      0.32076046	    -19.26931031	      7.68033311	     10.33260489	    -23.93915816	     -9.98328785	    -12.96465115	     33.85937822	     21.32180655	    -12.03571493	      8.74929276	     -7.49764885	      0.09475193	      0.00000000	      0.00000000	      0.00000000	     -0.01513261	      0.00000000	     -2.46105245	     -9.22149621	      6.55925909	     18.39619236
      0.10000000	     -1.61417325	     -9.02303782	    -11.48395952	     -0.71196883	      0.97747040	      0.31979188	    -18.77956405	      7.21983377	      9.75185320	    -25.06222146	    -10.68863821	    -12.60334485	     34.25630052	     21.15077957	    -11.43359446	      8.65631313	     -7.70980421	      0.13951789	      0.00000000	      0.00000000	      0.00000000	     -0.01527316	      0.00000000	     -2.52361114	     -9.08079136	      6.07896930	     18.08494679
